<?xml version="1.0" encoding="UTF-8"?>
<svg xmlns="http://www.w3.org/2000/svg" xmlns:xlink="http://www.w3.org/1999/xlink" width="20px" height="20px" viewBox="0 0 20 20" version="1.1">
<g id="surface1">
<path style=" stroke:none;fill-rule:nonzero;fill:rgb(0%,0%,0%);fill-opacity:1;" d="M 7.5 1.667969 L 13.332031 1.667969 L 13.332031 5 L 16.667969 5 L 16.667969 13.332031 L 14.167969 13.332031 L 14.167969 14.167969 L 17.5 14.167969 L 17.5 3.832031 L 14.5 0.832031 L 6.667969 0.832031 L 6.667969 5 L 7.5 5 Z M 14.167969 1.667969 L 14.425781 1.667969 L 16.667969 3.910156 L 16.667969 4.167969 L 14.167969 4.167969 Z M 4.167969 15.832031 L 10 15.832031 L 10 16.667969 L 4.167969 16.667969 Z M 2.5 19.167969 L 13.332031 19.167969 L 13.332031 8.832031 L 10.332031 5.832031 L 2.5 5.832031 Z M 10 6.667969 L 10.257812 6.667969 L 12.5 8.910156 L 12.5 9.167969 L 10 9.167969 Z M 3.332031 6.667969 L 9.167969 6.667969 L 9.167969 10 L 12.5 10 L 12.5 18.332031 L 3.332031 18.332031 Z M 4.167969 10.832031 L 11.667969 10.832031 L 11.667969 11.667969 L 4.167969 11.667969 Z M 7.5 13.332031 L 11.667969 13.332031 L 11.667969 14.167969 L 4.167969 14.167969 L 4.167969 13.332031 Z M 7.5 13.332031 "/>
</g>
</svg>
