<?xml version="1.0" encoding="UTF-8"?>
<svg xmlns="http://www.w3.org/2000/svg" xmlns:xlink="http://www.w3.org/1999/xlink" width="20px" height="20px" viewBox="0 0 20 20" version="1.1">
<g id="surface1">
<path style=" stroke:none;fill-rule:nonzero;fill:rgb(0%,0%,0%);fill-opacity:1;" d="M 11.835938 4.042969 C 11.953125 4.140625 11.953125 4.300781 11.835938 4.402344 L 9.230469 6.527344 C 9.109375 6.628906 9.011719 6.582031 9.011719 6.425781 L 9.011719 5.292969 C 9.011719 5.140625 8.886719 5.03125 8.734375 5.066406 C 6.089844 5.648438 4.101562 8.007812 4.101562 10.828125 C 4.101562 14.078125 6.746094 16.726562 10 16.726562 C 13.253906 16.726562 15.898438 14.078125 15.898438 10.828125 C 15.898438 10.4375 16.214844 10.121094 16.605469 10.121094 C 16.996094 10.121094 17.3125 10.4375 17.3125 10.828125 C 17.3125 14.859375 14.03125 18.136719 10 18.136719 C 5.96875 18.136719 2.6875 14.859375 2.6875 10.828125 C 2.6875 7.226562 5.304688 4.230469 8.734375 3.628906 C 8.886719 3.601562 9.011719 3.457031 9.011719 3.300781 L 9.011719 2.019531 C 9.011719 1.863281 9.109375 1.816406 9.230469 1.914062 Z M 11.835938 4.042969 "/>
</g>
</svg>
