<?xml version="1.0" encoding="UTF-8"?>
<svg xmlns="http://www.w3.org/2000/svg" xmlns:xlink="http://www.w3.org/1999/xlink" width="20px" height="20px" viewBox="0 0 20 20" version="1.1">
<g id="surface1">
<path style=" stroke:none;fill-rule:nonzero;fill:rgb(0%,0%,0%);fill-opacity:1;" d="M 15.726562 5 L 16.5625 5 L 15.742188 18.347656 C 15.710938 18.808594 15.328125 19.167969 14.867188 19.167969 L 5.132812 19.167969 C 4.671875 19.164062 4.289062 18.808594 4.257812 18.347656 L 3.4375 5 L 4.273438 5 L 5.089844 18.292969 C 5.089844 18.316406 5.109375 18.332031 5.132812 18.332031 L 14.867188 18.332031 Z M 7.917969 15.832031 C 8.148438 15.832031 8.332031 15.648438 8.332031 15.417969 L 8.332031 7.082031 C 8.332031 6.851562 8.148438 6.667969 7.917969 6.667969 C 7.6875 6.667969 7.5 6.851562 7.5 7.082031 L 7.5 15.417969 C 7.5 15.648438 7.6875 15.832031 7.917969 15.832031 Z M 12.082031 15.832031 C 12.3125 15.832031 12.5 15.648438 12.5 15.417969 L 12.5 7.082031 C 12.5 6.851562 12.3125 6.667969 12.082031 6.667969 C 11.851562 6.667969 11.667969 6.851562 11.667969 7.082031 L 11.667969 15.417969 C 11.667969 15.648438 11.851562 15.832031 12.082031 15.832031 Z M 4.21875 4.167969 L 2.5 4.167969 L 2.5 3.332031 L 6.667969 3.332031 L 6.667969 2.707031 C 6.667969 2.132812 7.132812 1.667969 7.707031 1.667969 L 12.292969 1.667969 C 12.867188 1.667969 13.332031 2.132812 13.332031 2.707031 L 13.332031 3.332031 L 17.5 3.332031 L 17.5 4.167969 Z M 7.5 3.332031 L 12.5 3.332031 L 12.5 2.707031 C 12.5 2.59375 12.40625 2.5 12.292969 2.5 L 7.707031 2.5 C 7.59375 2.5 7.5 2.59375 7.5 2.707031 Z M 7.5 3.332031 "/>
</g>
</svg>
