<?xml version="1.0" encoding="UTF-8"?>
<svg xmlns="http://www.w3.org/2000/svg" xmlns:xlink="http://www.w3.org/1999/xlink" width="20px" height="20px" viewBox="0 0 20 20" version="1.1">
<g id="surface1">
<path style=" stroke:none;fill-rule:nonzero;fill:rgb(0%,0%,0%);fill-opacity:1;" d="M 19.949219 9.757812 L 17.203125 5.003906 C 17.132812 4.882812 17.003906 4.808594 16.863281 4.808594 L 11.375 4.808594 C 11.238281 4.808594 11.109375 4.882812 11.039062 5.003906 L 8.40625 9.582031 L 3.132812 9.601562 C 2.996094 9.601562 2.867188 9.675781 2.796875 9.796875 L 0.0507812 14.550781 C -0.015625 14.671875 -0.015625 14.820312 0.0507812 14.941406 L 2.796875 19.695312 C 2.867188 19.816406 2.996094 19.890625 3.136719 19.890625 L 8.625 19.890625 C 8.761719 19.890625 8.890625 19.816406 8.960938 19.695312 L 11.597656 15.117188 L 16.867188 15.097656 C 17.003906 15.09375 17.132812 15.019531 17.203125 14.902344 L 19.949219 10.148438 C 20.015625 10.027344 20.015625 9.878906 19.949219 9.757812 Z M 8.398438 19.109375 L 3.359375 19.109375 L 0.839844 14.746094 L 3.359375 10.382812 L 8.398438 10.363281 L 10.921875 14.726562 Z M 16.640625 14.316406 L 11.597656 14.335938 L 9.082031 9.972656 L 11.601562 5.589844 L 16.640625 5.589844 L 19.160156 9.953125 Z M 16.640625 14.316406 "/>
<path style=" stroke:none;fill-rule:nonzero;fill:rgb(0%,0%,0%);fill-opacity:1;" d="M 1.90625 8.675781 C 1.984375 8.78125 2.101562 8.839844 2.226562 8.839844 C 2.304688 8.839844 2.382812 8.816406 2.449219 8.769531 C 2.628906 8.644531 2.667969 8.402344 2.546875 8.226562 L 1.578125 6.847656 C 1.453125 6.671875 1.207031 6.628906 1.03125 6.753906 C 0.855469 6.878906 0.8125 7.121094 0.9375 7.296875 Z M 1.90625 8.675781 "/>
<path style=" stroke:none;fill-rule:nonzero;fill:rgb(0%,0%,0%);fill-opacity:1;" d="M 18.808594 15.414062 C 18.683594 15.238281 18.4375 15.195312 18.261719 15.320312 C 18.085938 15.441406 18.042969 15.6875 18.167969 15.863281 L 19.136719 17.238281 C 19.214844 17.347656 19.332031 17.40625 19.457031 17.40625 C 19.535156 17.40625 19.613281 17.382812 19.679688 17.335938 C 19.859375 17.210938 19.898438 16.964844 19.777344 16.789062 Z M 18.808594 15.414062 "/>
<path style=" stroke:none;fill-rule:nonzero;fill:rgb(0%,0%,0%);fill-opacity:1;" d="M 17.480469 16.332031 C 17.359375 16.15625 17.113281 16.113281 16.9375 16.234375 C 16.761719 16.359375 16.71875 16.605469 16.84375 16.78125 L 17.8125 18.15625 C 17.886719 18.265625 18.007812 18.324219 18.132812 18.324219 C 18.210938 18.324219 18.289062 18.300781 18.355469 18.25 C 18.53125 18.128906 18.574219 17.882812 18.449219 17.707031 Z M 17.480469 16.332031 "/>
<path style=" stroke:none;fill-rule:nonzero;fill:rgb(0%,0%,0%);fill-opacity:1;" d="M 8.339844 1.539062 C 8.417969 1.644531 8.539062 1.703125 8.660156 1.703125 C 8.738281 1.703125 8.816406 1.679688 8.886719 1.632812 C 9.0625 1.507812 9.105469 1.265625 8.980469 1.089844 L 8.40625 0.277344 C 8.285156 0.0976562 8.039062 0.0585938 7.863281 0.179688 C 7.6875 0.304688 7.644531 0.546875 7.769531 0.726562 Z M 8.339844 1.539062 "/>
<path style=" stroke:none;fill-rule:nonzero;fill:rgb(0%,0%,0%);fill-opacity:1;" d="M 10.0625 3.984375 C 10.140625 4.09375 10.261719 4.152344 10.382812 4.152344 C 10.460938 4.152344 10.539062 4.128906 10.605469 4.078125 C 10.785156 3.957031 10.824219 3.710938 10.703125 3.535156 L 10.019531 2.566406 C 9.894531 2.390625 9.652344 2.347656 9.476562 2.472656 C 9.300781 2.597656 9.257812 2.839844 9.382812 3.015625 Z M 10.0625 3.984375 "/>
<path style=" stroke:none;fill-rule:nonzero;fill:rgb(0%,0%,0%);fill-opacity:1;" d="M 3.128906 14.734375 C 3.023438 14.546875 2.785156 14.476562 2.597656 14.582031 C 2.410156 14.6875 2.339844 14.925781 2.445312 15.113281 L 3.820312 17.609375 C 3.890625 17.738281 4.027344 17.8125 4.164062 17.8125 C 4.226562 17.8125 4.292969 17.796875 4.351562 17.765625 C 4.539062 17.660156 4.609375 17.421875 4.503906 17.234375 Z M 3.128906 14.734375 "/>
<path style=" stroke:none;fill-rule:nonzero;fill:rgb(0%,0%,0%);fill-opacity:1;" d="M 11.496094 8.976562 C 11.308594 8.871094 11.070312 8.933594 10.960938 9.121094 L 10.667969 9.632812 C 10.5625 9.820312 10.625 10.058594 10.8125 10.164062 C 10.875 10.199219 10.941406 10.21875 11.007812 10.21875 C 11.140625 10.21875 11.273438 10.148438 11.347656 10.019531 L 11.640625 9.511719 C 11.746094 9.324219 11.679688 9.085938 11.496094 8.976562 Z M 11.496094 8.976562 "/>
<path style=" stroke:none;fill-rule:nonzero;fill:rgb(0%,0%,0%);fill-opacity:1;" d="M 12.671875 7.042969 C 12.488281 6.933594 12.25 6.992188 12.136719 7.179688 L 11.800781 7.738281 C 11.691406 7.925781 11.75 8.164062 11.9375 8.277344 C 12 8.3125 12.066406 8.332031 12.136719 8.332031 C 12.269531 8.332031 12.398438 8.261719 12.472656 8.140625 L 12.808594 7.582031 C 12.917969 7.394531 12.859375 7.15625 12.671875 7.042969 Z M 12.671875 7.042969 "/>
</g>
</svg>
