<?xml version="1.0" encoding="UTF-8"?>
<svg xmlns="http://www.w3.org/2000/svg" xmlns:xlink="http://www.w3.org/1999/xlink" width="20px" height="20px" viewBox="0 0 20 20" version="1.1">
<g id="surface1">
<path style=" stroke:none;fill-rule:nonzero;fill:rgb(0%,0%,0%);fill-opacity:1;" d="M 9.394531 11.269531 L 8.304688 11.269531 L 7.761719 10.324219 C 7.6875 10.195312 7.550781 10.125 7.410156 10.128906 C 7.34375 10.128906 7.28125 10.144531 7.222656 10.179688 C 7.03125 10.289062 6.96875 10.53125 7.078125 10.71875 L 7.621094 11.664062 L 7.078125 12.605469 C 6.96875 12.796875 7.035156 13.039062 7.222656 13.144531 C 7.285156 13.183594 7.351562 13.199219 7.417969 13.199219 C 7.554688 13.199219 7.6875 13.128906 7.761719 13 L 8.304688 12.058594 L 9.394531 12.058594 C 9.613281 12.058594 9.789062 11.882812 9.789062 11.664062 C 9.789062 11.445312 9.613281 11.269531 9.394531 11.269531 Z M 9.394531 11.269531 "/>
<path style=" stroke:none;fill-rule:nonzero;fill:rgb(0%,0%,0%);fill-opacity:1;" d="M 9.394531 4.613281 L 8.078125 4.613281 C 7.9375 4.613281 7.804688 4.691406 7.734375 4.8125 L 7.078125 5.953125 C 6.96875 6.140625 7.03125 6.382812 7.222656 6.492188 C 7.285156 6.527344 7.351562 6.546875 7.417969 6.546875 C 7.554688 6.546875 7.6875 6.476562 7.761719 6.347656 L 8.304688 5.40625 L 9.394531 5.40625 C 9.613281 5.40625 9.789062 5.226562 9.789062 5.007812 C 9.789062 4.792969 9.613281 4.613281 9.394531 4.613281 Z M 9.394531 4.613281 "/>
<path style=" stroke:none;fill-rule:nonzero;fill:rgb(0%,0%,0%);fill-opacity:1;" d="M 10.601562 5.40625 L 11.691406 5.40625 L 12.234375 6.347656 C 12.308594 6.476562 12.441406 6.546875 12.578125 6.546875 C 12.644531 6.546875 12.714844 6.527344 12.777344 6.492188 C 12.964844 6.382812 13.03125 6.140625 12.921875 5.953125 L 12.261719 4.8125 C 12.191406 4.691406 12.0625 4.613281 11.917969 4.613281 L 10.601562 4.613281 C 10.382812 4.613281 10.207031 4.792969 10.207031 5.007812 C 10.207031 5.226562 10.382812 5.40625 10.601562 5.40625 Z M 10.601562 5.40625 "/>
<path style=" stroke:none;fill-rule:nonzero;fill:rgb(0%,0%,0%);fill-opacity:1;" d="M 3.632812 14.59375 L 2.542969 14.59375 L 2 13.652344 C 1.890625 13.464844 1.648438 13.398438 1.460938 13.507812 C 1.269531 13.617188 1.207031 13.859375 1.316406 14.046875 L 1.972656 15.1875 C 2.042969 15.308594 2.175781 15.386719 2.316406 15.386719 L 3.632812 15.386719 C 3.851562 15.386719 4.027344 15.207031 4.027344 14.992188 C 4.027344 14.773438 3.851562 14.59375 3.632812 14.59375 Z M 3.632812 14.59375 "/>
<path style=" stroke:none;fill-rule:nonzero;fill:rgb(0%,0%,0%);fill-opacity:1;" d="M 1.394531 12.605469 L 0.851562 11.664062 L 1.394531 10.71875 C 1.503906 10.53125 1.441406 10.289062 1.25 10.179688 C 1.0625 10.070312 0.820312 10.136719 0.710938 10.324219 L 0.0546875 11.464844 C -0.0195312 11.589844 -0.0195312 11.738281 0.0546875 11.859375 L 0.710938 13 C 0.785156 13.128906 0.917969 13.199219 1.054688 13.199219 C 1.121094 13.199219 1.1875 13.183594 1.25 13.144531 C 1.441406 13.039062 1.503906 12.796875 1.394531 12.605469 Z M 1.394531 12.605469 "/>
<path style=" stroke:none;fill-rule:nonzero;fill:rgb(0%,0%,0%);fill-opacity:1;" d="M 3.632812 7.941406 L 2.316406 7.941406 C 2.175781 7.941406 2.042969 8.015625 1.972656 8.140625 L 1.316406 9.28125 C 1.207031 9.46875 1.269531 9.710938 1.460938 9.820312 C 1.523438 9.855469 1.589844 9.871094 1.65625 9.871094 C 1.792969 9.871094 1.925781 9.800781 2 9.675781 L 2.542969 8.730469 L 3.632812 8.730469 C 3.851562 8.730469 4.027344 8.554688 4.027344 8.335938 C 4.027344 8.117188 3.851562 7.941406 3.632812 7.941406 Z M 3.632812 7.941406 "/>
<path style=" stroke:none;fill-rule:nonzero;fill:rgb(0%,0%,0%);fill-opacity:1;" d="M 4.839844 8.730469 L 5.929688 8.730469 L 6.472656 9.675781 C 6.546875 9.800781 6.679688 9.871094 6.816406 9.871094 C 6.882812 9.871094 6.953125 9.855469 7.015625 9.820312 C 7.203125 9.710938 7.265625 9.46875 7.160156 9.28125 L 6.613281 8.335938 L 7.15625 7.394531 C 7.265625 7.203125 7.203125 6.960938 7.011719 6.855469 C 6.824219 6.746094 6.582031 6.808594 6.472656 7 L 5.929688 7.941406 L 4.839844 7.941406 C 4.621094 7.941406 4.445312 8.117188 4.445312 8.335938 C 4.445312 8.554688 4.621094 8.730469 4.839844 8.730469 Z M 4.839844 8.730469 "/>
<path style=" stroke:none;fill-rule:nonzero;fill:rgb(0%,0%,0%);fill-opacity:1;" d="M 7.015625 13.507812 C 6.824219 13.398438 6.582031 13.464844 6.472656 13.652344 L 5.929688 14.59375 L 4.839844 14.59375 C 4.621094 14.59375 4.445312 14.773438 4.445312 14.992188 C 4.445312 15.207031 4.621094 15.386719 4.839844 15.386719 L 6.15625 15.386719 C 6.296875 15.386719 6.429688 15.308594 6.5 15.1875 L 7.160156 14.046875 C 7.265625 13.859375 7.203125 13.617188 7.015625 13.507812 Z M 7.015625 13.507812 "/>
<path style=" stroke:none;fill-rule:nonzero;fill:rgb(0%,0%,0%);fill-opacity:1;" d="M 15.160156 14.59375 L 14.070312 14.59375 L 13.527344 13.652344 C 13.417969 13.464844 13.175781 13.398438 12.984375 13.507812 C 12.796875 13.617188 12.730469 13.859375 12.839844 14.046875 L 13.5 15.1875 C 13.570312 15.308594 13.699219 15.386719 13.84375 15.386719 L 15.160156 15.386719 C 15.378906 15.386719 15.554688 15.207031 15.554688 14.992188 C 15.554688 14.773438 15.378906 14.59375 15.160156 14.59375 Z M 15.160156 14.59375 "/>
<path style=" stroke:none;fill-rule:nonzero;fill:rgb(0%,0%,0%);fill-opacity:1;" d="M 12.921875 12.605469 L 12.378906 11.664062 L 12.921875 10.71875 C 13.03125 10.53125 12.964844 10.289062 12.777344 10.179688 C 12.730469 10.152344 12.679688 10.136719 12.628906 10.128906 C 12.472656 10.113281 12.316406 10.183594 12.234375 10.324219 L 11.691406 11.269531 L 10.601562 11.269531 C 10.382812 11.269531 10.207031 11.445312 10.207031 11.664062 C 10.207031 11.882812 10.382812 12.058594 10.601562 12.058594 L 11.691406 12.058594 L 12.238281 13 C 12.3125 13.128906 12.445312 13.199219 12.582031 13.199219 C 12.648438 13.199219 12.714844 13.183594 12.777344 13.144531 C 12.964844 13.039062 13.03125 12.796875 12.921875 12.605469 Z M 12.921875 12.605469 "/>
<path style=" stroke:none;fill-rule:nonzero;fill:rgb(0%,0%,0%);fill-opacity:1;" d="M 15.160156 7.941406 L 14.070312 7.941406 L 13.523438 7 C 13.414062 6.808594 13.171875 6.746094 12.984375 6.855469 C 12.796875 6.960938 12.730469 7.203125 12.839844 7.394531 L 13.382812 8.335938 L 12.839844 9.28125 C 12.730469 9.46875 12.796875 9.710938 12.984375 9.820312 C 13.046875 9.855469 13.113281 9.871094 13.179688 9.871094 C 13.183594 9.871094 13.183594 9.871094 13.183594 9.871094 C 13.320312 9.871094 13.453125 9.800781 13.527344 9.675781 L 14.070312 8.730469 L 15.160156 8.730469 C 15.378906 8.730469 15.554688 8.554688 15.554688 8.335938 C 15.554688 8.117188 15.378906 7.941406 15.160156 7.941406 Z M 15.160156 7.941406 "/>
<path style=" stroke:none;fill-rule:nonzero;fill:rgb(0%,0%,0%);fill-opacity:1;" d="M 16.367188 8.730469 L 17.457031 8.730469 L 18 9.675781 C 18.074219 9.800781 18.207031 9.871094 18.34375 9.871094 C 18.410156 9.871094 18.476562 9.855469 18.539062 9.820312 C 18.730469 9.710938 18.792969 9.46875 18.683594 9.28125 L 18.027344 8.140625 C 17.957031 8.015625 17.824219 7.941406 17.683594 7.941406 L 16.367188 7.941406 C 16.148438 7.941406 15.972656 8.117188 15.972656 8.335938 C 15.972656 8.554688 16.148438 8.730469 16.367188 8.730469 Z M 16.367188 8.730469 "/>
<path style=" stroke:none;fill-rule:nonzero;fill:rgb(0%,0%,0%);fill-opacity:1;" d="M 19.945312 11.464844 L 19.289062 10.324219 C 19.179688 10.136719 18.9375 10.070312 18.75 10.179688 C 18.558594 10.289062 18.496094 10.53125 18.605469 10.71875 L 19.148438 11.664062 L 18.605469 12.605469 C 18.496094 12.796875 18.558594 13.039062 18.75 13.144531 C 18.8125 13.183594 18.878906 13.199219 18.945312 13.199219 C 19.082031 13.199219 19.214844 13.128906 19.289062 13 L 19.945312 11.859375 C 20.019531 11.738281 20.019531 11.589844 19.945312 11.464844 Z M 19.945312 11.464844 "/>
<path style=" stroke:none;fill-rule:nonzero;fill:rgb(0%,0%,0%);fill-opacity:1;" d="M 18.539062 13.507812 C 18.351562 13.398438 18.109375 13.464844 18 13.652344 L 17.457031 14.59375 L 16.367188 14.59375 C 16.148438 14.59375 15.972656 14.773438 15.972656 14.992188 C 15.972656 15.207031 16.148438 15.386719 16.367188 15.386719 L 17.683594 15.386719 C 17.824219 15.386719 17.957031 15.308594 18.027344 15.1875 L 18.683594 14.046875 C 18.792969 13.859375 18.730469 13.617188 18.539062 13.507812 Z M 18.539062 13.507812 "/>
</g>
</svg>
