<?xml version="1.0" encoding="UTF-8"?>
<svg xmlns="http://www.w3.org/2000/svg" xmlns:xlink="http://www.w3.org/1999/xlink" width="20px" height="20px" viewBox="0 0 20 20" version="1.1">
<g id="surface1">
<path style=" stroke:none;fill-rule:nonzero;fill:rgb(0%,0%,0%);fill-opacity:1;" d="M 18.96875 17.0625 L 15.4375 13.53125 C 15.171875 13.265625 14.746094 13.265625 14.484375 13.53125 L 14.300781 13.710938 L 13.082031 12.492188 L 13.242188 12.332031 C 15.601562 9.484375 15.304688 5.289062 12.574219 2.800781 C 9.839844 0.308594 5.636719 0.410156 3.023438 3.023438 C 0.410156 5.636719 0.308594 9.839844 2.800781 12.574219 C 5.289062 15.304688 9.484375 15.601562 12.332031 13.242188 L 12.492188 13.082031 L 13.710938 14.300781 L 13.53125 14.484375 C 13.265625 14.746094 13.265625 15.175781 13.53125 15.4375 L 17.0625 18.96875 C 17.328125 19.230469 17.753906 19.230469 18.015625 18.96875 L 18.96875 18.015625 C 19.230469 17.753906 19.230469 17.328125 18.96875 17.0625 Z M 7.914062 14 C 6.300781 14.003906 4.753906 13.363281 3.617188 12.21875 C 1.292969 9.898438 1.230469 6.148438 3.480469 3.75 C 5.730469 1.355469 9.476562 1.179688 11.941406 3.355469 C 14.40625 5.53125 14.695312 9.269531 12.597656 11.796875 L 11.742188 12.648438 C 10.660156 13.527344 9.308594 14.003906 7.914062 14 Z M 17.539062 18.265625 L 14.230469 14.960938 L 14.960938 14.234375 L 18.269531 17.539062 Z M 5 7.5 L 10.832031 7.5 L 10.832031 8.332031 L 5 8.332031 Z M 5 7.5 "/>
</g>
</svg>
