<?xml version="1.0" encoding="UTF-8" standalone="no"?>
<svg
   width="20px"
   height="20px"
   viewBox="0 0 20 20"
   version="1.1"
   id="svg1"
   xmlns="http://www.w3.org/2000/svg"
   xmlns:svg="http://www.w3.org/2000/svg">
  <defs
     id="defs1" />
  <path
     d="m 16.655312,9.9428737 q 0,2.1041833 -0.809301,3.6847013 -0.79978,1.580517 -2.304128,2.427903 -1.504348,0.847386 -3.5514043,0.847386 -2.0660984,0 -3.5704466,-0.837864 -1.494827,-0.837865 -2.2850859,-2.418383 -0.7902588,-1.590039 -0.7902588,-3.7037433 0,-3.2181626 1.7614203,-5.0271889 1.7614204,-1.8185475 4.9034133,-1.8185475 2.047056,0 3.551404,0.8188225 1.504349,0.8093012 2.294607,2.3612553 0.79978,1.5519542 0.79978,3.6656586 z m -1.856632,0 q 0,-2.5040733 -1.256797,-3.9322519 -1.247276,-1.4281787 -3.532362,-1.4281787 -2.3041281,0 -3.5609254,1.4091363 -1.2567972,1.4091363 -1.2567972,3.9512943 0,2.5231153 1.2663184,4.0084213 1.2758396,1.475785 3.5323619,1.475785 2.3231703,0 3.5609253,-1.428179 1.247276,-1.4377 1.247276,-4.0560273 z"
     id="text2"
     style="font-size:19.4994px;font-family:'Liberation Sans';-inkscape-font-specification:'Liberation Sans';font-variant-position:sub;fill:#ff0d0d;stroke-width:2.74209"
     aria-label="O" />
</svg>
