<?xml version="1.0" encoding="UTF-8"?>
<svg xmlns="http://www.w3.org/2000/svg" xmlns:xlink="http://www.w3.org/1999/xlink" width="20px" height="20px" viewBox="0 0 20 20" version="1.1">
<g id="surface1">
<path style=" stroke:none;fill-rule:nonzero;fill:rgb(0%,0%,0%);fill-opacity:1;" d="M 3.332031 16.667969 L 3.332031 17.5 L 1.667969 17.5 L 1.667969 15.832031 L 2.5 15.832031 L 2.5 16.667969 Z M 2.5 2.5 L 3.332031 2.5 L 3.332031 1.667969 L 1.667969 1.667969 L 1.667969 3.332031 L 2.5 3.332031 Z M 1.667969 6.667969 L 2.5 6.667969 L 2.5 5 L 1.667969 5 Z M 1.667969 10.832031 L 2.5 10.832031 L 2.5 8.332031 L 1.667969 8.332031 Z M 16.667969 6.667969 L 17.5 6.667969 L 17.5 5 L 16.667969 5 Z M 16.667969 10 L 17.5 10 L 17.5 8.332031 L 16.667969 8.332031 Z M 1.667969 14.167969 L 2.5 14.167969 L 2.5 12.5 L 1.667969 12.5 Z M 6.667969 2.5 L 6.667969 1.667969 L 5 1.667969 L 5 2.5 Z M 10.832031 2.5 L 10.832031 1.667969 L 8.332031 1.667969 L 8.332031 2.5 Z M 7.5 17.5 L 7.5 16.667969 L 5.832031 16.667969 L 5.832031 17.5 Z M 10.832031 17.5 L 10.832031 16.667969 L 9.167969 16.667969 L 9.167969 17.5 Z M 14.167969 2.5 L 14.167969 1.667969 L 12.5 1.667969 L 12.5 2.5 Z M 15.832031 1.667969 L 15.832031 2.5 L 16.667969 2.5 L 16.667969 3.332031 L 17.5 3.332031 L 17.5 1.667969 Z M 15.628906 18.332031 L 17.867188 17.207031 L 15.9375 13.332031 L 19.167969 13.332031 L 11.667969 7.886719 L 11.667969 17.136719 L 13.652344 14.417969 Z M 13.78125 12.824219 L 12.5 14.582031 L 12.5 9.523438 L 16.601562 12.5 L 14.59375 12.5 L 16.75 16.835938 L 15.996094 17.214844 Z M 13.78125 12.824219 "/>
</g>
</svg>
