<?xml version="1.0" encoding="UTF-8"?>
<svg xmlns="http://www.w3.org/2000/svg" xmlns:xlink="http://www.w3.org/1999/xlink" width="20px" height="20px" viewBox="0 0 20 20" version="1.1">
<g id="surface1">
<path style=" stroke:none;fill-rule:nonzero;fill:rgb(0%,0%,0%);fill-opacity:1;" d="M 10.109375 2.757812 C 11.082031 1.78125 12.667969 1.78125 13.640625 2.757812 L 18.492188 7.609375 C 19.46875 8.582031 19.46875 10.167969 18.492188 11.140625 L 11.617188 18.015625 C 11.148438 18.488281 10.511719 18.75 9.847656 18.75 L 6.398438 18.75 C 5.738281 18.75 5.101562 18.488281 4.632812 18.015625 L 1.507812 14.890625 C 0.53125 13.917969 0.53125 12.332031 1.507812 11.359375 L 10.105469 2.757812 Z M 12.757812 3.640625 C 12.269531 3.15625 11.480469 3.15625 10.992188 3.640625 L 5.199219 9.433594 L 11.816406 16.050781 L 17.609375 10.257812 C 18.09375 9.769531 18.09375 8.980469 17.609375 8.492188 Z M 10.933594 16.933594 L 4.316406 10.316406 L 2.390625 12.242188 C 1.90625 12.730469 1.90625 13.519531 2.390625 14.007812 L 5.515625 17.132812 C 5.75 17.367188 6.070312 17.5 6.402344 17.5 L 9.851562 17.5 C 10.179688 17.5 10.5 17.367188 10.734375 17.132812 Z M 10.933594 16.933594 "/>
</g>
</svg>
