<?xml version="1.0" encoding="UTF-8"?>
<svg xmlns="http://www.w3.org/2000/svg" xmlns:xlink="http://www.w3.org/1999/xlink" width="20px" height="20px" viewBox="0 0 20 20" version="1.1">
<g id="surface1">
<path style=" stroke:none;fill-rule:nonzero;fill:rgb(0%,0%,0%);fill-opacity:1;" d="M 19.144531 11.113281 L 19.117188 9.074219 C 19.621094 8.828125 19.976562 8.316406 19.984375 7.722656 C 19.992188 7.3125 19.835938 6.925781 19.550781 6.632812 C 19.265625 6.339844 18.882812 6.175781 18.457031 6.171875 C 18 6.171875 17.589844 6.382812 17.308594 6.703125 L 15.636719 5.742188 C 15.699219 5.492188 15.703125 5.230469 15.632812 4.972656 C 15.527344 4.578125 15.273438 4.25 14.917969 4.042969 C 14.6875 3.914062 14.425781 3.84375 14.15625 3.84375 C 13.609375 3.84375 13.101562 4.136719 12.828125 4.609375 C 12.695312 4.84375 12.636719 5.097656 12.632812 5.351562 L 10.890625 6.339844 C 10.636719 6.15625 10.332031 6.054688 9.996094 6.050781 C 9.539062 6.050781 9.128906 6.257812 8.847656 6.582031 L 7.175781 5.621094 C 7.238281 5.371094 7.246094 5.105469 7.175781 4.851562 C 7.066406 4.457031 6.8125 4.125 6.460938 3.921875 C 6.226562 3.789062 5.964844 3.71875 5.699219 3.71875 C 5.152344 3.71875 4.644531 4.011719 4.371094 4.488281 C 4.238281 4.722656 4.179688 4.976562 4.175781 5.230469 L 2.375 6.25 C 2.125 6.085938 1.832031 5.992188 1.527344 5.992188 C 1.25 5.992188 0.980469 6.066406 0.742188 6.210938 C 0.0195312 6.644531 -0.214844 7.585938 0.21875 8.308594 C 0.410156 8.628906 0.710938 8.859375 1.054688 8.972656 L 1.089844 10.890625 C 0.765625 11.015625 0.484375 11.246094 0.308594 11.554688 C 0.105469 11.910156 0.0507812 12.324219 0.160156 12.71875 C 0.265625 13.113281 0.519531 13.441406 0.875 13.644531 C 1.105469 13.777344 1.367188 13.847656 1.636719 13.847656 C 1.96875 13.847656 2.285156 13.738281 2.546875 13.546875 L 4.292969 14.550781 C 4.285156 14.707031 4.296875 14.871094 4.339844 15.027344 C 4.445312 15.421875 4.699219 15.753906 5.054688 15.957031 C 5.285156 16.089844 5.550781 16.160156 5.816406 16.160156 C 6.363281 16.160156 6.871094 15.863281 7.144531 15.390625 C 7.316406 15.089844 7.371094 14.753906 7.328125 14.433594 L 9 13.492188 C 9.265625 13.730469 9.609375 13.882812 9.992188 13.886719 L 10.015625 13.886719 C 10.339844 13.886719 10.640625 13.777344 10.890625 13.601562 L 12.753906 14.671875 C 12.742188 14.832031 12.753906 14.992188 12.796875 15.148438 C 12.902344 15.542969 13.15625 15.875 13.511719 16.078125 C 13.742188 16.210938 14.007812 16.28125 14.273438 16.28125 C 14.820312 16.28125 15.328125 15.984375 15.601562 15.511719 C 15.773438 15.210938 15.828125 14.875 15.785156 14.554688 L 17.457031 13.613281 C 17.730469 13.859375 18.078125 14.003906 18.449219 14.007812 L 18.472656 14.007812 C 19.304688 14.007812 19.988281 13.328125 20 12.5 C 20.007812 11.894531 19.660156 11.367188 19.144531 11.113281 Z M 18.464844 7 C 18.652344 7 18.828125 7.078125 18.957031 7.210938 C 19.089844 7.347656 19.160156 7.523438 19.15625 7.710938 C 19.152344 8.09375 18.835938 8.40625 18.457031 8.40625 L 18.457031 8.792969 L 18.453125 8.792969 L 18.445312 8.40625 C 18.058594 8.398438 17.75 8.078125 17.75 7.691406 C 17.757812 7.308594 18.074219 7 18.464844 7 Z M 13.546875 5.019531 C 13.671875 4.804688 13.90625 4.667969 14.15625 4.667969 C 14.28125 4.667969 14.402344 4.699219 14.507812 4.761719 C 14.671875 4.855469 14.789062 5.007812 14.835938 5.1875 C 14.886719 5.371094 14.863281 5.558594 14.769531 5.722656 C 14.582031 6.042969 14.136719 6.167969 13.808594 5.980469 C 13.46875 5.789062 13.351562 5.359375 13.546875 5.019531 Z M 10.007812 6.875 C 10.195312 6.878906 10.371094 6.953125 10.5 7.089844 C 10.632812 7.222656 10.703125 7.398438 10.699219 7.589844 C 10.695312 7.96875 10.378906 8.28125 10 8.28125 L 10 8.671875 L 9.996094 8.671875 L 9.988281 8.28125 C 9.601562 8.277344 9.289062 7.957031 9.292969 7.570312 C 9.300781 7.1875 9.617188 6.875 10.007812 6.875 Z M 5.089844 4.898438 C 5.214844 4.679688 5.449219 4.542969 5.699219 4.542969 C 5.820312 4.542969 5.941406 4.578125 6.046875 4.640625 C 6.210938 4.734375 6.328125 4.882812 6.378906 5.066406 C 6.425781 5.246094 6.402344 5.4375 6.308594 5.597656 C 6.121094 5.921875 5.675781 6.046875 5.347656 5.859375 C 5.011719 5.664062 4.894531 5.234375 5.089844 4.898438 Z M 0.929688 7.882812 C 0.726562 7.550781 0.835938 7.117188 1.167969 6.917969 C 1.277344 6.851562 1.402344 6.816406 1.527344 6.816406 C 1.777344 6.816406 2.003906 6.945312 2.132812 7.15625 C 2.230469 7.320312 2.257812 7.507812 2.210938 7.691406 C 2.167969 7.871094 2.054688 8.027344 1.894531 8.121094 C 1.566406 8.316406 1.121094 8.203125 0.929688 7.882812 Z M 1.289062 12.925781 C 1.125 12.832031 1.007812 12.683594 0.957031 12.5 C 0.910156 12.320312 0.933594 12.132812 1.027344 11.96875 C 1.152344 11.75 1.386719 11.613281 1.640625 11.613281 C 1.761719 11.613281 1.882812 11.648438 1.988281 11.707031 C 2.324219 11.902344 2.441406 12.332031 2.246094 12.667969 C 2.0625 12.992188 1.613281 13.113281 1.289062 12.925781 Z M 6.425781 14.980469 C 6.242188 15.300781 5.796875 15.425781 5.46875 15.238281 C 5.304688 15.144531 5.1875 14.992188 5.140625 14.8125 C 5.089844 14.628906 5.113281 14.441406 5.207031 14.277344 C 5.332031 14.0625 5.566406 13.925781 5.820312 13.925781 C 5.941406 13.925781 6.0625 13.957031 6.167969 14.019531 C 6.503906 14.210938 6.621094 14.640625 6.425781 14.980469 Z M 6.578125 13.300781 C 6.347656 13.167969 6.085938 13.097656 5.816406 13.097656 C 5.316406 13.097656 4.851562 13.347656 4.566406 13.75 L 3.054688 12.882812 C 3.328125 12.1875 3.066406 11.375 2.398438 10.992188 C 2.25 10.90625 2.085938 10.847656 1.914062 10.816406 L 1.886719 9.007812 C 2.039062 8.96875 2.183594 8.914062 2.320312 8.832031 C 2.667969 8.621094 2.917969 8.289062 3.015625 7.890625 C 3.101562 7.554688 3.0625 7.207031 2.917969 6.894531 L 4.40625 6.050781 C 4.535156 6.261719 4.710938 6.445312 4.9375 6.578125 C 5.167969 6.710938 5.433594 6.78125 5.699219 6.78125 C 6.105469 6.78125 6.488281 6.617188 6.769531 6.339844 L 8.496094 7.332031 C 8.484375 7.40625 8.46875 7.480469 8.46875 7.558594 C 8.460938 8.238281 8.902344 8.816406 9.515625 9.023438 L 9.546875 10.90625 C 8.941406 11.105469 8.492188 11.667969 8.484375 12.335938 C 8.484375 12.496094 8.511719 12.648438 8.558594 12.792969 L 7.003906 13.664062 C 6.886719 13.523438 6.746094 13.398438 6.578125 13.300781 Z M 10.015625 13.058594 L 10.015625 13.472656 L 10.003906 13.058594 C 9.617188 13.050781 9.308594 12.734375 9.3125 12.34375 C 9.316406 11.960938 9.632812 11.652344 10.023438 11.652344 C 10.410156 11.65625 10.722656 11.976562 10.71875 12.363281 C 10.710938 12.746094 10.398438 13.058594 10.015625 13.058594 Z M 14.882812 15.101562 C 14.699219 15.421875 14.253906 15.546875 13.925781 15.359375 C 13.761719 15.265625 13.644531 15.113281 13.597656 14.933594 C 13.546875 14.753906 13.570312 14.5625 13.664062 14.402344 C 13.792969 14.183594 14.023438 14.046875 14.277344 14.046875 C 14.398438 14.046875 14.519531 14.078125 14.625 14.140625 C 14.960938 14.335938 15.078125 14.765625 14.882812 15.101562 Z M 15.035156 13.425781 C 14.804688 13.292969 14.542969 13.222656 14.277344 13.222656 C 13.777344 13.222656 13.308594 13.46875 13.027344 13.875 L 11.421875 12.953125 C 11.5 12.773438 11.542969 12.578125 11.542969 12.375 C 11.554688 11.769531 11.203125 11.246094 10.6875 10.988281 L 10.660156 8.949219 C 11.164062 8.703125 11.519531 8.191406 11.527344 7.597656 C 11.53125 7.386719 11.492188 7.183594 11.414062 6.992188 L 12.863281 6.171875 C 12.992188 6.382812 13.167969 6.566406 13.394531 6.699219 C 13.628906 6.832031 13.890625 6.902344 14.15625 6.902344 C 14.5625 6.902344 14.945312 6.738281 15.226562 6.460938 L 16.953125 7.453125 C 16.941406 7.527344 16.925781 7.601562 16.925781 7.679688 C 16.917969 8.472656 17.523438 9.128906 18.296875 9.214844 L 18.316406 10.964844 C 17.558594 11.042969 16.953125 11.679688 16.945312 12.457031 C 16.941406 12.617188 16.96875 12.769531 17.015625 12.914062 L 15.460938 13.785156 C 15.34375 13.648438 15.207031 13.519531 15.035156 13.425781 Z M 18.472656 13.179688 L 18.472656 13.59375 L 18.464844 13.179688 C 18.277344 13.179688 18.101562 13.101562 17.96875 12.96875 C 17.839844 12.835938 17.769531 12.65625 17.769531 12.46875 C 17.777344 12.085938 18.089844 11.773438 18.484375 11.773438 C 18.871094 11.78125 19.179688 12.097656 19.175781 12.488281 C 19.167969 12.871094 18.855469 13.179688 18.472656 13.179688 Z M 18.472656 13.179688 "/>
</g>
</svg>
