<?xml version="1.0" encoding="UTF-8"?>
<svg xmlns="http://www.w3.org/2000/svg" xmlns:xlink="http://www.w3.org/1999/xlink" width="20px" height="20px" viewBox="0 0 20 20" version="1.1">
<g id="surface1">
<path style=" stroke:none;fill-rule:nonzero;fill:rgb(0%,0%,0%);fill-opacity:1;" d="M 3.746094 9.207031 C 4.101562 8.402344 4.300781 7.535156 4.324219 6.652344 C 4.324219 6.628906 4.328125 6.609375 4.332031 6.585938 L 5.136719 6.929688 C 5.085938 7.753906 4.902344 8.566406 4.59375 9.335938 Z M 15.484375 4.933594 L 14.808594 5.441406 C 15.214844 5.960938 15.570312 6.511719 15.871094 7.09375 L 16.703125 6.835938 C 16.363281 6.164062 15.953125 5.527344 15.484375 4.933594 Z M 11.964844 3.160156 C 12.574219 3.433594 13.144531 3.792969 13.648438 4.230469 L 14.335938 3.714844 C 13.695312 3.136719 12.964844 2.675781 12.167969 2.339844 Z M 8.179688 2.863281 C 8.65625 2.734375 9.144531 2.667969 9.636719 2.667969 C 9.878906 2.667969 10.117188 2.6875 10.359375 2.71875 L 10.5625 1.898438 C 10.253906 1.855469 9.945312 1.832031 9.636719 1.832031 C 9.066406 1.832031 8.5 1.910156 7.953125 2.0625 Z M 4.894531 15.476562 C 4.226562 15.398438 3.601562 15.101562 3.121094 14.636719 L 2.214844 14.832031 C 2.835938 15.664062 3.773438 16.199219 4.800781 16.3125 Z M 2.511719 13.0625 C 2.507812 13.011719 2.5 12.96875 2.5 12.921875 C 2.5 12.425781 2.761719 12.078125 3.265625 11.457031 C 3.402344 11.285156 3.554688 11.089844 3.707031 10.886719 L 2.765625 10.746094 C 2.144531 11.3125 1.757812 12.085938 1.667969 12.921875 C 1.667969 13.035156 1.675781 13.136719 1.683594 13.246094 Z M 5.445312 5.25 C 5.6875 4.597656 6.109375 4.03125 6.660156 3.609375 L 6.417969 2.761719 C 5.632812 3.289062 5.027344 4.042969 4.6875 4.925781 Z M 18.015625 11.101562 C 17.886719 10.175781 17.667969 9.261719 17.359375 8.378906 L 16.546875 8.628906 C 16.75 9.203125 16.914062 9.789062 17.035156 10.386719 Z M 15.628906 14.167969 L 17.453125 17.929688 L 15.042969 19.140625 L 13.15625 15.292969 L 10.832031 18.476562 L 10.832031 7.925781 L 19.386719 14.167969 Z M 14.300781 13.332031 L 16.832031 13.332031 L 11.667969 9.566406 L 11.667969 15.917969 L 13.296875 13.683594 L 15.421875 18.019531 L 16.347656 17.554688 Z M 9.167969 15.710938 C 8.507812 15.496094 7.816406 15.386719 7.121094 15.386719 C 6.929688 15.386719 6.75 15.394531 6.578125 15.40625 L 6.488281 16.25 C 6.6875 16.234375 6.898438 16.21875 7.121094 16.21875 C 7.820312 16.226562 8.511719 16.351562 9.167969 16.597656 Z M 9.167969 15.710938 "/>
</g>
</svg>
